<svg width="20" height="20" viewBox="0 0 20 20" fill="none" xmlns="http://www.w3.org/2000/svg">
<circle cx="10" cy="10" r="9.5" fill="#DEDEDE" stroke="#101010"/>
<path d="M3.30744 11.7468H16.9579V12.7767H3.30744V11.7468ZM9.50243 10.2557H10.6707V17.127H9.50243V10.2557ZM8.97977 12.1464L9.93285 12.5769C8.53398 14.4369 6.02832 16.0817 3.78398 16.8964C3.59951 16.6044 3.26133 16.1586 3 15.928C5.24434 15.2362 7.71926 13.7759 8.97977 12.1464ZM11.2087 12.1772C12.4539 13.7913 14.9134 15.1748 17.25 15.8204C17.004 16.0356 16.6505 16.4814 16.4814 16.7888C14.1448 16.0202 11.6392 14.4523 10.2403 12.6383L11.2087 12.1772ZM8.36489 7.93447V9.50243H11.8851V7.93447H8.36489ZM8.36489 5.49029V7.04288H11.8851V5.49029H8.36489ZM7.28883 4.56796H13.0073V10.4401H7.28883V4.56796ZM9.6254 3L10.8859 3.18447C10.6092 3.90696 10.3325 4.62945 10.1019 5.13673L9.10275 4.92152C9.30259 4.36812 9.5178 3.5534 9.6254 3ZM3.49191 4.59871L4.29126 3.9377C5.25971 4.58333 6.35113 5.52104 6.84304 6.2589L5.99757 7.01214C5.53641 6.27427 4.46036 5.27508 3.49191 4.59871ZM13.038 8.33414L13.7144 7.58091C14.9134 8.18042 16.4506 9.11812 17.2193 9.7945L16.5121 10.6553C15.7743 9.97896 14.2524 8.97977 13.038 8.33414ZM15.7282 3.78398L16.7273 4.36812C15.9126 5.25971 14.8673 6.22815 14.0372 6.88916L13.1764 6.30502C13.9911 5.65938 15.0979 4.58333 15.7282 3.78398ZM3 9.74838C3.9377 9.27184 5.33657 8.47249 6.70469 7.70388L7.02751 8.65696C5.85922 9.34871 4.59871 10.1173 3.58414 10.7015L3 9.74838Z" fill="#101010"/>
</svg>
