<svg width="25" height="25" viewBox="0 0 25 25" fill="none" xmlns="http://www.w3.org/2000/svg">
<circle cx="12.5" cy="12.5" r="11.5" fill="#DEDEDE" stroke="#101010" stroke-width="1.5"/>
<mask id="path-2-inside-1_40_4" fill="white">
<path d="M3.88835 14.4892H21.1311V15.7243H3.88835V14.4892ZM11.7136 12.701H13.1893V20.9412H11.7136V12.701ZM11.0534 14.9684L12.2573 15.4846C10.4903 17.7152 7.32524 19.6876 4.49029 20.6647C4.25728 20.3144 3.8301 19.7798 3.5 19.5033C6.33495 18.6738 9.46117 16.9225 11.0534 14.9684ZM13.8689 15.0053C15.4417 16.9409 18.5485 18.6 21.5 19.3743C21.1893 19.6323 20.7427 20.1669 20.5291 20.5356C17.5777 19.6139 14.4126 17.7336 12.6456 15.5583L13.8689 15.0053ZM10.2767 9.91743V11.7977H14.7233V9.91743H10.2767ZM10.2767 6.98637V8.84824H14.7233V6.98637H10.2767ZM8.91748 5.8803H16.1408V12.9222H8.91748V5.8803ZM11.8689 4L13.4612 4.22121C13.1117 5.08763 12.7621 5.95404 12.4709 6.56238L11.2087 6.3043C11.4612 5.64066 11.733 4.66364 11.8689 4ZM4.12136 5.91717L5.13107 5.1245C6.35437 5.89874 7.73301 7.02323 8.35437 7.90808L7.28641 8.81137C6.70388 7.92652 5.34466 6.72829 4.12136 5.91717ZM16.1796 10.3967L17.034 9.49344C18.5485 10.2124 20.4903 11.3369 21.4612 12.148L20.568 13.1803C19.6359 12.3692 17.7136 11.171 16.1796 10.3967ZM19.5777 4.94015L20.8398 5.64066C19.8107 6.70985 18.4903 7.87122 17.4417 8.66389L16.3544 7.96339C17.3835 7.18914 18.7816 5.89874 19.5777 4.94015ZM3.5 12.0927C4.68447 11.5212 6.45146 10.5626 8.17961 9.64091L8.58738 10.7838C7.11165 11.6134 5.51942 12.5351 4.23786 13.2356L3.5 12.0927Z"/>
</mask>
<path d="M3.88835 14.4892V-35.5108H-46.1117V14.4892H3.88835ZM21.1311 14.4892H71.1311V-35.5108H21.1311V14.4892ZM21.1311 15.7243V65.7243H71.1311V15.7243H21.1311ZM3.88835 15.7243H-46.1117V65.7243H3.88835V15.7243ZM11.7136 12.701V-37.299H-38.2864V12.701H11.7136ZM13.1893 12.701H63.1893V-37.299H13.1893V12.701ZM13.1893 20.9412V70.9412H63.1893V20.9412H13.1893ZM11.7136 20.9412H-38.2864V70.9412H11.7136V20.9412ZM11.0534 14.9684L30.7562 -30.9859L-3.89333 -45.8418L-27.7079 -16.6158L11.0534 14.9684ZM12.2573 15.4846L51.4499 46.532L92.0422 -4.70963L31.9601 -30.4697L12.2573 15.4846ZM4.49029 20.6647L-37.1392 48.3592L-15.7416 80.5233L20.7817 67.9361L4.49029 20.6647ZM3.5 19.5033L-10.5419 -28.4845L-100.297 -2.22079L-28.6074 57.8323L3.5 19.5033ZM13.8689 15.0053L52.6733 -16.5259L28.3776 -46.4258L-6.72813 -30.5552L13.8689 15.0053ZM21.5 19.3743L53.4493 57.8351L128.262 -4.31117L34.187 -28.9894L21.5 19.3743ZM20.5291 20.5356L5.62439 68.2624L43.7639 80.1731L63.7933 45.5998L20.5291 20.5356ZM12.6456 15.5583L-7.95144 -30.0022L-67.0709 -3.27535L-26.1636 47.0836L12.6456 15.5583ZM10.2767 9.91743V-40.0826H-39.7233V9.91743H10.2767ZM10.2767 11.7977H-39.7233V61.7977H10.2767V11.7977ZM14.7233 11.7977V61.7977H64.7233V11.7977H14.7233ZM14.7233 9.91743H64.7233V-40.0826H14.7233V9.91743ZM10.2767 6.98637V-43.0136H-39.7233V6.98637H10.2767ZM10.2767 8.84824H-39.7233V58.8482H10.2767V8.84824ZM14.7233 8.84824V58.8482H64.7233V8.84824H14.7233ZM14.7233 6.98637H64.7233V-43.0136H14.7233V6.98637ZM8.91748 5.8803V-44.1197H-41.0825V5.8803H8.91748ZM16.1408 5.8803H66.1408V-44.1197H16.1408V5.8803ZM16.1408 12.9222V62.9222H66.1408V12.9222H16.1408ZM8.91748 12.9222H-41.0825V62.9222H8.91748V12.9222ZM11.8689 4L18.7494 -45.5243L-27.7039 -51.9782L-37.1142 -6.03245L11.8689 4ZM13.4612 4.22121L59.8304 22.9267L83.798 -36.487L20.3417 -45.3031L13.4612 4.22121ZM12.4709 6.56238L2.45416 55.5488L40.7073 63.3707L57.5684 28.1544L12.4709 6.56238ZM11.2087 6.3043L-35.5247 -11.4716L-56.4368 43.5068L1.19203 55.2907L11.2087 6.3043ZM4.12136 5.91717L-26.7537 -33.4113L-81.2035 9.33479L-23.5093 47.5891L4.12136 5.91717ZM5.13107 5.1245L31.871 -37.1245L2.0322 -56.0098L-25.744 -34.204L5.13107 5.1245ZM8.35437 7.90808L40.6436 46.084L75.5353 16.5726L49.2732 -20.826L8.35437 7.90808ZM7.28641 8.81137L-34.4761 36.3049L-3.47315 83.3981L39.5757 46.9873L7.28641 8.81137ZM16.1796 10.3967L-20.1456 -23.9614L-66.2612 24.7944L-6.34975 55.0333L16.1796 10.3967ZM17.034 9.49344L38.4752 -35.6759L5.66552 -51.2502L-19.2912 -24.8647L17.034 9.49344ZM21.4612 12.148L59.2724 44.8636L92.5586 6.39294L53.5182 -26.2232L21.4612 12.148ZM20.568 13.1803L-12.2558 50.8977L25.5697 83.8156L58.3792 45.8959L20.568 13.1803ZM19.5777 4.94015L43.8418 -38.7777L7.5974 -58.8939L-18.8867 -27.005L19.5777 4.94015ZM20.8398 5.64066L56.8637 40.3146L101.95 -6.52689L45.1039 -38.0772L20.8398 5.64066ZM17.4417 8.66389L-9.6365 50.6968L19.7291 69.6146L47.5942 48.5491L17.4417 8.66389ZM16.3544 7.96339L-13.7052 -31.9919L-71.0378 11.1412L-10.7239 49.9963L16.3544 7.96339ZM3.5 12.0927L-18.2268 -32.94L-69.2078 -8.34344L-38.5066 39.2117L3.5 12.0927ZM8.17961 9.64091L55.2722 -7.16046L35.7945 -61.7547L-15.3505 -34.4764L8.17961 9.64091ZM8.58738 10.7838L33.0881 54.3696L69.8515 33.7039L55.68 -6.01753L8.58738 10.7838ZM4.23786 13.2356L-37.7688 40.3547L-12.5614 79.4002L28.2194 57.1091L4.23786 13.2356ZM3.88835 64.4892H21.1311V-35.5108H3.88835V64.4892ZM-28.8689 14.4892V15.7243H71.1311V14.4892H-28.8689ZM21.1311 -34.2757H3.88835V65.7243H21.1311V-34.2757ZM53.8883 15.7243V14.4892H-46.1117V15.7243H53.8883ZM11.7136 62.701H13.1893V-37.299H11.7136V62.701ZM-36.8107 12.701V20.9412H63.1893V12.701H-36.8107ZM13.1893 -29.0588H11.7136V70.9412H13.1893V-29.0588ZM61.7136 20.9412V12.701H-38.2864V20.9412H61.7136ZM-8.64943 60.9228L-7.44554 61.4389L31.9601 -30.4697L30.7562 -30.9859L-8.64943 60.9228ZM-26.9353 -15.5628C-23.5828 -19.7948 -20.3249 -22.1675 -18.6007 -23.2956C-16.694 -24.5431 -14.4896 -25.6802 -11.8011 -26.6068L20.7817 67.9361C30.0604 64.7384 42.2604 58.1323 51.4499 46.532L-26.9353 -15.5628ZM46.1198 -7.02984C44.6588 -9.22591 41.155 -14.1786 35.6074 -18.8257L-28.6074 57.8323C-30.3886 56.3402 -31.6877 55.0296 -32.4204 54.2615C-33.2217 53.4213 -33.8612 52.6858 -34.333 52.1213C-35.1843 51.1028 -36.1347 49.869 -37.1392 48.3592L46.1198 -7.02984ZM17.5419 67.4911C26.1662 64.9675 39.6635 59.0105 49.8147 46.5527L-27.7079 -16.6158C-23.5214 -21.7536 -19.3885 -24.3913 -17.6203 -25.4321C-15.4883 -26.687 -13.185 -27.7111 -10.5419 -28.4845L17.5419 67.4911ZM-24.9355 46.5366C-14.2223 59.7208 0.107066 65.4541 8.81298 67.7379L34.187 -28.9894C36.7744 -28.3106 39.2271 -27.3308 41.6435 -25.9743C43.677 -24.8327 48.1984 -22.033 52.6733 -16.5259L-24.9355 46.5366ZM-10.4493 -19.0866C-15.5561 -14.8444 -19.7461 -9.68788 -22.735 -4.52861L63.7933 45.5998C61.9796 48.7304 60.2386 50.9066 59.3427 51.9784C58.7561 52.6802 58.0576 53.4713 57.2364 54.3228C56.4921 55.0945 55.2045 56.3771 53.4493 57.8351L-10.4493 -19.0866ZM35.4339 -27.1912C38.0991 -26.3589 40.4105 -25.2689 42.511 -23.9652C44.413 -22.7846 47.8978 -20.3459 51.4549 -15.9669L-26.1636 47.0836C-16.55 58.9184 -3.86906 65.2977 5.62439 68.2624L35.4339 -27.1912ZM33.2427 61.1189L34.466 60.5658L-6.72813 -30.5552L-7.95144 -30.0022L33.2427 61.1189ZM-39.7233 9.91743V11.7977H60.2767V9.91743H-39.7233ZM10.2767 61.7977H14.7233V-38.2023H10.2767V61.7977ZM64.7233 11.7977V9.91743H-35.2767V11.7977H64.7233ZM14.7233 -40.0826H10.2767V59.9174H14.7233V-40.0826ZM-39.7233 6.98637V8.84824H60.2767V6.98637H-39.7233ZM10.2767 58.8482H14.7233V-41.1518H10.2767V58.8482ZM64.7233 8.84824V6.98637H-35.2767V8.84824H64.7233ZM14.7233 -43.0136H10.2767V56.9864H14.7233V-43.0136ZM8.91748 55.8803H16.1408V-44.1197H8.91748V55.8803ZM-33.8592 5.8803V12.9222H66.1408V5.8803H-33.8592ZM16.1408 -37.0778H8.91748V62.9222H16.1408V-37.0778ZM58.9175 12.9222V5.8803H-41.0825V12.9222H58.9175ZM4.98843 53.5243L6.58067 53.7455L20.3417 -45.3031L18.7494 -45.5243L4.98843 53.5243ZM-32.9081 -14.4843C-33.0003 -14.2556 -33.0604 -14.1067 -33.1149 -13.9727C-33.14 -13.9109 -33.1587 -13.8652 -33.1725 -13.8317C-33.1793 -13.8153 -33.1843 -13.8032 -33.1878 -13.7948C-33.1913 -13.7863 -33.1929 -13.7825 -33.1927 -13.7828C-33.1926 -13.7831 -33.1904 -13.7884 -33.1862 -13.7984C-33.182 -13.8083 -33.1754 -13.8238 -33.1666 -13.8444C-33.1496 -13.8842 -33.1205 -13.9521 -33.0804 -14.0433C-33.0408 -14.1336 -32.9842 -14.261 -32.9124 -14.4185C-32.8412 -14.5747 -32.7452 -14.7819 -32.6266 -15.0297L57.5684 28.1544C58.6998 25.7912 59.7168 23.2083 59.8304 22.9267L-32.9081 -14.4843ZM22.4876 -42.424L21.2254 -42.6821L1.19203 55.2907L2.45416 55.5488L22.4876 -42.424ZM57.9422 24.0802C59.2889 20.5396 60.2593 16.9266 60.8521 14.0324L-37.1142 -6.03245C-36.8786 -7.18289 -36.6569 -8.00959 -36.5148 -8.50963C-36.4279 -8.8158 -36.3177 -9.1856 -36.1783 -9.61688C-36.0469 -10.0236 -35.8314 -10.6653 -35.5247 -11.4716L57.9422 24.0802ZM34.9964 45.2457L36.0061 44.453L-25.744 -34.204L-26.7537 -33.4113L34.9964 45.2457ZM-21.6089 47.3735C-22.8947 46.5597 -24.1321 45.6604 -25.3968 44.5863C-26.0597 44.0234 -26.9835 43.1975 -28.0514 42.1014C-29.0272 41.0999 -30.7276 39.2579 -32.5645 36.6421L49.2732 -20.826C42.9442 -29.8389 34.8977 -35.2089 31.871 -37.1245L-21.6089 47.3735ZM-23.9349 -30.2679L-25.0029 -29.3646L39.5757 46.9873L40.6436 46.084L-23.9349 -30.2679ZM49.0489 -18.6822C43.0703 -27.7636 35.2907 -33.4084 31.752 -35.7547L-23.5093 47.5891C-25.0411 46.5734 -26.3653 45.5316 -27.5972 44.4173C-28.2506 43.8263 -29.1376 42.9802 -30.1539 41.8705C-31.0698 40.8705 -32.713 38.9829 -34.4761 36.3049L49.0489 -18.6822ZM52.5048 44.7549L53.3592 43.8516L-19.2912 -24.8647L-20.1456 -23.9614L52.5048 44.7549ZM-4.40726 54.6628C-5.12405 54.3226 -5.61759 54.0506 -6.06295 53.7863C-6.31889 53.6345 -6.77177 53.3587 -7.37671 52.9508C-7.88146 52.6106 -9.08161 51.7842 -10.5959 50.5192L53.5182 -26.2232C47.7886 -31.01 41.4559 -34.261 38.4752 -35.6759L-4.40726 54.6628ZM-16.3501 -20.5676L-17.2433 -19.5353L58.3792 45.8959L59.2724 44.8636L-16.3501 -20.5676ZM53.3917 -24.5371C48.0334 -29.2001 42.0146 -32.5714 38.709 -34.2399L-6.34975 55.0333C-7.16178 54.6235 -7.68371 54.3119 -8.08159 54.0608C-8.31917 53.9109 -8.7294 53.6454 -9.27874 53.2546C-9.72764 52.9353 -10.841 52.1289 -12.2558 50.8977L53.3917 -24.5371ZM-4.68643 48.658L-3.42429 49.3585L45.1039 -38.0772L43.8418 -38.7777L-4.68643 48.658ZM-15.1841 -29.0332C-14.6332 -29.6056 -14.2434 -29.9608 -14.0277 -30.1522C-13.8207 -30.3357 -13.4003 -30.7 -12.7107 -31.2213L47.5942 48.5491C50.7122 46.1919 53.9987 43.2911 56.8637 40.3146L-15.1841 -29.0332ZM44.52 -33.3691L43.4326 -34.0696L-10.7239 49.9963L-9.6365 50.6968L44.52 -33.3691ZM46.4139 47.9186C49.9644 45.2475 54.3393 41.3437 58.0421 36.8853L-18.8867 -27.005C-18.077 -27.98 -17.4214 -28.6761 -17.056 -29.0539C-16.656 -29.4674 -16.3225 -29.7892 -16.0641 -30.0304C-15.6697 -30.3986 -14.9132 -31.0831 -13.7052 -31.9919L46.4139 47.9186ZM25.2268 57.1254C27.6088 55.9762 30.7901 54.2487 31.7097 53.7582L-15.3505 -34.4764C-15.8124 -34.23 -16.3091 -33.964 -16.6902 -33.7602C-17.1038 -33.5391 -17.4438 -33.3577 -17.7448 -33.1985C-18.0482 -33.038 -18.2465 -32.9347 -18.3686 -32.8719C-18.5072 -32.8006 -18.4384 -32.8379 -18.2268 -32.94L25.2268 57.1254ZM-38.913 26.4423L-38.5052 27.5852L55.68 -6.01753L55.2722 -7.16046L-38.913 26.4423ZM-15.9133 -32.8019C-18.3196 -31.4492 -18.7195 -31.1977 -19.7437 -30.6379L28.2194 57.1091C29.7584 56.2679 32.5429 54.676 33.0881 54.3696L-15.9133 -32.8019ZM46.2445 -13.8834L45.5066 -15.0264L-38.5066 39.2117L-37.7688 40.3547L46.2445 -13.8834Z" fill="#101010" mask="url(#path-2-inside-1_40_4)"/>
</svg>
